<svg xmlns="http://www.w3.org/2000/svg" viewBox="0 0 48 48" role="img" aria-labelledby="title desc">
  <title id="title">Typrism icon</title>
  <desc id="desc">The same cat-and-pen launcher icon used inside Typora.</desc>
  <defs>
    <radialGradient id="button-shine" cx="30%" cy="18%" r="26%">
      <stop offset="0" stop-color="#ffffff" stop-opacity=".92"/>
      <stop offset=".68" stop-color="#ffffff" stop-opacity=".92"/>
      <stop offset=".72" stop-color="#ffffff" stop-opacity="0"/>
      <stop offset="1" stop-color="#ffffff" stop-opacity="0"/>
    </radialGradient>
    <linearGradient id="button-bg" x1="8" y1="6" x2="41" y2="43" gradientUnits="userSpaceOnUse">
      <stop offset="0" stop-color="#fff8e8"/>
      <stop offset="1" stop-color="#f2dfc4"/>
    </linearGradient>
    <filter id="shadow" x="-20%" y="-20%" width="140%" height="150%" color-interpolation-filters="sRGB">
      <feDropShadow dx="0" dy="4" stdDeviation="5" flood-color="#44311d" flood-opacity=".16"/>
    </filter>
  </defs>
  <rect x="1" y="1" width="46" height="46" rx="18" fill="url(#button-bg)" stroke="#d8c9b5" filter="url(#shadow)"/>
  <rect x="1" y="1" width="46" height="46" rx="18" fill="url(#button-shine)"/>
  <rect x="5" y="5" width="38" height="38" rx="14" fill="#fffdf7" fill-opacity=".72"/>
  <path d="M37 7l1.8 4.1L43 13l-4.2 1.9L37 19l-1.8-4.1L31 13l4.2-1.9L37 7z" fill="#d89b3d" opacity=".92"/>
  <path d="M13.5 23.1 16.1 11l8 6.1 7.8-6.1 2.6 12.1c1.5 1.8 2.3 4 2.3 6.5 0 7-5.4 11.9-12.8 11.9s-12.8-4.9-12.8-11.9c0-2.5.8-4.7 2.3-6.5z" fill="#fff9ec" stroke="#9b5d2e" stroke-width="2" stroke-linejoin="round"/>
  <circle cx="20" cy="28.4" r="1.7" fill="#2f2418"/>
  <circle cx="28" cy="28.4" r="1.7" fill="#2f2418"/>
  <path d="M21.7 33.1c1.3 1.4 3.3 1.4 4.6 0" fill="none" stroke="#9b5d2e" stroke-width="2" stroke-linecap="round" stroke-linejoin="round"/>
  <path d="M31.5 36.6 39 29.1l2.2 2.2-7.5 7.5-3.4 1.2 1.2-3.4z" fill="none" stroke="#9b5d2e" stroke-width="2" stroke-linecap="round" stroke-linejoin="round"/>
</svg>
